<svg width="24" height="24" viewBox="0 0 24 24" fill="none" xmlns="http://www.w3.org/2000/svg">
<path d="M10 18.1957C9.99992 17.9587 10.0516 17.724 10.152 17.5049C10.2524 17.2859 10.3997 17.0869 10.5853 16.9192C10.771 16.7516 10.9914 16.6185 11.234 16.5278C11.4767 16.437 11.7367 16.3902 11.9994 16.3901C12.262 16.3901 12.5221 16.4367 12.7648 16.5273C13.0075 16.618 13.228 16.7508 13.4138 16.9184C13.5995 17.086 13.7469 17.2849 13.8475 17.5039C13.9481 17.7228 13.9999 17.9575 14 18.1946C14.0002 18.6733 13.7896 19.1325 13.4147 19.4711C13.0397 19.8097 12.5311 20 12.0006 20.0002C11.4702 20.0004 10.9614 19.8103 10.5862 19.4719C10.211 19.1335 10.0002 18.6745 10 18.1957Z" fill="black"/>
<path d="M10.0001 12.0007C10.0001 12.9973 10.8952 13.8052 11.9994 13.8052C13.1036 13.8052 13.9988 12.9973 13.9988 12.0007C13.9988 11.0042 13.1036 10.1963 11.9994 10.1963C10.8952 10.1963 10.0001 11.0042 10.0001 12.0007Z" fill="black"/>
<path d="M10.0003 5.80445C10.0003 6.80102 10.8955 7.6089 11.9997 7.6089C13.1039 7.6089 13.999 6.80102 13.999 5.80445C13.999 4.80788 13.1039 4 11.9997 4C10.8955 4 10.0003 4.80788 10.0003 5.80445Z" fill="black"/>
</svg>
