<svg width="25" height="24" viewBox="0 0 25 24" fill="none" xmlns="http://www.w3.org/2000/svg">
<path d="M16.3997 2C16.8242 1.99901 17.1599 2.32884 17.1609 2.76862L17.1619 3.51824C19.9165 3.73414 21.7362 5.6112 21.7391 8.48975L21.75 16.9155C21.7539 20.054 19.7822 21.985 16.6218 21.99L8.90189 22C5.7612 22.004 3.76482 20.027 3.76087 16.8796L3.75001 8.55272C3.74606 5.65517 5.50153 3.78311 8.25618 3.53024L8.25519 2.78061C8.2542 2.34083 8.58002 2.01 9.01445 2.01C9.44887 2.009 9.77469 2.33883 9.77568 2.77861L9.77666 3.47826L15.6414 3.47027L15.6404 2.77062C15.6394 2.33084 15.9652 2.001 16.3997 2ZM16.8025 16.1919H16.7926C16.3384 16.2029 15.9741 16.5837 15.984 17.0435C15.985 17.5032 16.3513 17.882 16.8055 17.892C17.2685 17.891 17.6437 17.5102 17.6427 17.0405C17.6427 16.5707 17.2665 16.1919 16.8025 16.1919ZM8.66691 16.1929C8.21274 16.2129 7.8573 16.5937 7.85828 17.0535C7.87902 17.5132 8.2542 17.8731 8.70837 17.8521C9.15366 17.8321 9.50811 17.4513 9.48738 16.9915C9.4775 16.5417 9.1112 16.1919 8.66691 16.1929ZM12.7347 16.1879C12.2805 16.2089 11.9261 16.5887 11.9261 17.0485C11.9468 17.5082 12.322 17.8671 12.7762 17.8471C13.2205 17.8261 13.5759 17.4463 13.5552 16.9855C13.5453 16.5367 13.179 16.1869 12.7347 16.1879ZM8.66197 12.5947C8.2078 12.6147 7.85335 12.9955 7.85433 13.4553C7.87408 13.915 8.25025 14.2749 8.70442 14.2539C9.14872 14.2339 9.50317 13.8531 9.48244 13.3933C9.47257 12.9435 9.10725 12.5937 8.66197 12.5947ZM12.7307 12.5597C12.2766 12.5797 11.9211 12.9605 11.9221 13.4203C11.9419 13.8801 12.318 14.2389 12.7722 14.2189C13.2165 14.1979 13.571 13.8181 13.5512 13.3583C13.5404 12.9085 13.175 12.5587 12.7307 12.5597ZM16.7985 12.5647C16.3444 12.5747 15.9889 12.9445 15.9899 13.4043V13.4153C15.9998 13.8751 16.375 14.2239 16.8301 14.2139C17.2744 14.2029 17.6289 13.8221 17.619 13.3623C17.5983 12.9225 17.2418 12.5637 16.7985 12.5647ZM15.6434 5.0095L9.77864 5.01749L9.77962 5.82609C9.77962 6.25687 9.45479 6.5967 9.02037 6.5967C8.58595 6.5977 8.25914 6.25887 8.25914 5.82809L8.25815 5.05847C6.33286 5.25138 5.26754 6.38281 5.27049 8.55072L5.27149 8.86157L20.2196 8.84158V8.49175C20.1772 6.34283 19.099 5.21539 17.1638 5.04748L17.1648 5.81709C17.1648 6.24688 16.8301 6.58771 16.4056 6.58771C15.9712 6.58871 15.6444 6.24888 15.6444 5.81909L15.6434 5.0095Z" fill="#AB46D2"/>
</svg>
