<svg width="48" height="48" viewBox="0 0 48 48" fill="none" xmlns="http://www.w3.org/2000/svg">
<path d="M0 24C0 10.7452 10.7452 0 24 0C37.2548 0 48 10.7452 48 24C48 37.2548 37.2548 48 24 48C10.7452 48 0 37.2548 0 24Z" fill="#E1E6EF"/>
<path fill-rule="evenodd" clip-rule="evenodd" d="M23.8445 33.6618C20.1527 33.6618 17 33.0873 17 30.7866C17 28.4858 20.1327 26.3618 23.8445 26.3618C27.5364 26.3618 30.6891 28.4652 30.6891 30.766C30.6891 33.0658 27.5564 33.6618 23.8445 33.6618Z" fill="#767A83"/>
<path fill-rule="evenodd" clip-rule="evenodd" d="M19.4419 28.3384C18.3053 29.0844 17.75 29.9893 17.75 30.7866C17.75 31.1705 17.874 31.4548 18.0979 31.6939C18.3382 31.9507 18.724 32.1853 19.2825 32.378C20.4085 32.7666 22.0152 32.9118 23.8445 32.9118C25.6825 32.9118 27.2884 32.7613 28.411 32.3684C28.9676 32.1736 29.3521 31.9372 29.5917 31.6788C29.8152 31.4377 29.9391 31.1511 29.9391 30.766C29.9391 29.9716 29.3822 29.0718 28.2421 28.3297C27.1226 27.601 25.5556 27.1118 23.8445 27.1118C22.1244 27.1118 20.5583 27.6056 19.4419 28.3384ZM18.6188 27.0844C19.9966 26.18 21.8528 25.6118 23.8445 25.6118C25.8253 25.6118 27.6806 26.1744 29.0604 27.0726C30.4197 27.9573 31.4391 29.2596 31.4391 30.766C31.4391 31.5308 31.1714 32.1812 30.6916 32.6987C30.2278 33.1988 29.597 33.5426 28.9065 33.7842C27.5348 34.2643 25.7184 34.4118 23.8445 34.4118C21.9821 34.4118 20.1665 34.2698 18.7932 33.796C18.102 33.5574 17.4689 33.217 17.0027 32.719C16.5201 32.2033 16.25 31.5531 16.25 30.7866C16.25 29.2831 17.261 27.9756 18.6188 27.0844Z" fill="#767A83"/>
<path fill-rule="evenodd" clip-rule="evenodd" d="M23.8374 23.1736C26.2602 23.1736 28.2238 21.2099 28.2238 18.7872C28.2238 16.3645 26.2602 14.3999 23.8374 14.3999C21.4148 14.3999 19.4502 16.3645 19.4502 18.7872C19.442 21.2017 21.392 23.1654 23.8065 23.1736C23.8174 23.1736 23.8274 23.1736 23.8374 23.1736Z" fill="#767A83"/>
<path fill-rule="evenodd" clip-rule="evenodd" d="M18.7002 18.7859C18.7009 15.9496 21.001 13.6499 23.8374 13.6499C26.6747 13.6499 28.9738 15.9504 28.9738 18.7872C28.9738 21.6241 26.6745 23.9236 23.8374 23.9236H23.8065L23.804 23.9236C20.9756 23.914 18.6913 21.614 18.7002 18.7859ZM18.7002 18.7859C18.7002 18.7855 18.7002 18.7851 18.7002 18.7846L19.4502 18.7872H18.7002C18.7002 18.7868 18.7002 18.7863 18.7002 18.7859ZM23.8374 15.1499C21.829 15.1499 20.2002 16.7787 20.2002 18.7872V18.7897C20.1934 20.7897 21.8082 22.4161 23.8078 22.4236H23.8366C25.8451 22.4236 27.4738 20.7957 27.4738 18.7872C27.4738 16.7785 25.8458 15.1499 23.8374 15.1499Z" fill="#767A83"/>
</svg>
