<svg width="16" height="16" viewBox="0 0 16 16" fill="none" xmlns="http://www.w3.org/2000/svg">
<path fill-rule="evenodd" clip-rule="evenodd" d="M5.83008 5.07202H13.2581V6.07202H5.83008V5.07202Z" fill="#767A83"/>
<path fill-rule="evenodd" clip-rule="evenodd" d="M2.33301 5.53195C2.33301 4.29105 3.34541 3.29102 4.58647 3.29102C5.82753 3.29102 6.83994 4.29105 6.83994 5.53195C6.83994 6.77287 5.82753 7.77287 4.58647 7.77287C3.34541 7.77287 2.33301 6.77287 2.33301 5.53195ZM4.58647 4.29102C3.89092 4.29102 3.33301 4.85008 3.33301 5.53195C3.33301 6.21381 3.89092 6.77287 4.58647 6.77287C5.28201 6.77287 5.83993 6.21381 5.83993 5.53195C5.83993 4.85008 5.28201 4.29102 4.58647 4.29102Z" fill="#767A83"/>
<path fill-rule="evenodd" clip-rule="evenodd" d="M10.5032 11.4805H3.0752V12.4805H10.5032V11.4805Z" fill="#767A83"/>
<path fill-rule="evenodd" clip-rule="evenodd" d="M14.0001 11.9402C14.0001 10.6993 12.9877 9.69922 11.7466 9.69922C10.5056 9.69922 9.49316 10.6993 9.49316 11.9402C9.49316 13.1811 10.5056 14.1811 11.7466 14.1811C12.9877 14.1811 14.0001 13.1811 14.0001 11.9402ZM11.7466 10.6992C12.4422 10.6992 13.0001 11.2583 13.0001 11.9402C13.0001 12.622 12.4422 13.1811 11.7466 13.1811C11.0511 13.1811 10.4932 12.622 10.4932 11.9402C10.4932 11.2583 11.0511 10.6992 11.7466 10.6992Z" fill="#767A83"/>
</svg>
