<svg width="25" height="24" viewBox="0 0 25 24" fill="none" xmlns="http://www.w3.org/2000/svg">
<path fill-rule="evenodd" clip-rule="evenodd" d="M5.81656 6.53519C3.60216 8.48506 3.15039 8.88286 3.15039 13.713C3.15039 22 5.1094 22 12.7364 22C20.3634 22 22.3224 22 22.3224 13.713C22.3224 8.88226 21.8712 8.48496 19.6563 6.53445C19.2894 6.21133 18.8741 5.84559 18.4044 5.41C18.1783 5.22795 17.9322 5.02046 17.6705 4.79978C16.2427 3.5961 14.3495 2 12.7084 2C11.0898 2 9.25826 3.55852 7.85586 4.75187C7.57473 4.99108 7.31085 5.21563 7.06939 5.41C6.59934 5.84592 6.18372 6.21189 5.81656 6.53519ZM9.8291 15.3854C9.41489 15.3854 9.0791 15.7212 9.0791 16.1354C9.0791 16.5496 9.41489 16.8854 9.8291 16.8854H15.6441C16.0583 16.8854 16.3941 16.5496 16.3941 16.1354C16.3941 15.7212 16.0583 15.3854 15.6441 15.3854H9.8291Z" fill="#AB46D2"/>
</svg>
