<svg width="24" height="24" viewBox="0 0 24 24" fill="none" xmlns="http://www.w3.org/2000/svg">
<path fill-rule="evenodd" clip-rule="evenodd" d="M2.02246 6.45648C2.02246 4.0074 4.00811 2.02148 6.45646 2.02148H11.3315C13.7807 2.02148 15.7665 4.00727 15.7665 6.45648V7.38948C15.7665 7.8037 15.4307 8.13948 15.0165 8.13948C14.6022 8.13948 14.2665 7.8037 14.2665 7.38948V6.45648C14.2665 4.8357 12.9522 3.52148 11.3315 3.52148H6.45646C4.83681 3.52148 3.52246 4.83557 3.52246 6.45648V17.5865C3.52246 19.2074 4.83681 20.5215 6.45646 20.5215H11.3415C12.9565 20.5215 14.2665 19.212 14.2665 17.5975V16.6545C14.2665 16.2403 14.6022 15.9045 15.0165 15.9045C15.4307 15.9045 15.7665 16.2403 15.7665 16.6545V17.5975C15.7665 20.041 13.7844 22.0215 11.3415 22.0215H6.45646C4.00812 22.0215 2.02246 20.0356 2.02246 17.5865V6.45648Z" fill="black"/>
<path fill-rule="evenodd" clip-rule="evenodd" d="M9.01855 12.0215C9.01855 11.6073 9.35434 11.2715 9.76855 11.2715H21.8096C22.2238 11.2715 22.5596 11.6073 22.5596 12.0215C22.5596 12.4357 22.2238 12.7715 21.8096 12.7715H9.76855C9.35434 12.7715 9.01855 12.4357 9.01855 12.0215Z" fill="black"/>
<path fill-rule="evenodd" clip-rule="evenodd" d="M18.3503 8.5773C18.6426 8.28375 19.1174 8.2827 19.411 8.57494L22.339 11.4899C22.4803 11.6307 22.5598 11.8219 22.5598 12.0214C22.5599 12.2208 22.4804 12.4121 22.3391 12.5529L19.4111 15.4689C19.1176 15.7612 18.6427 15.7602 18.3504 15.4667C18.0581 15.1732 18.0591 14.6983 18.3526 14.406L20.7469 12.0215L18.3527 9.63795C18.0591 9.34571 18.0581 8.87084 18.3503 8.5773Z" fill="black"/>
</svg>
