<svg width="25" height="24" viewBox="0 0 25 24" fill="none" xmlns="http://www.w3.org/2000/svg">
<path d="M16.441 2C19.53 2 21.25 3.78 21.25 6.83V17.16C21.25 20.26 19.53 22 16.441 22H8.06C5.02 22 3.25 20.26 3.25 17.16V6.83C3.25 3.78 5.02 2 8.06 2H16.441ZM8.33 15.74C8.03 15.71 7.74 15.85 7.58 16.11C7.42 16.36 7.42 16.69 7.58 16.95C7.74 17.2 8.03 17.35 8.33 17.31H16.17C16.569 17.27 16.87 16.929 16.87 16.53C16.87 16.12 16.569 15.78 16.17 15.74H8.33ZM16.17 11.179H8.33C7.899 11.179 7.55 11.53 7.55 11.96C7.55 12.39 7.899 12.74 8.33 12.74H16.17C16.6 12.74 16.95 12.39 16.95 11.96C16.95 11.53 16.6 11.179 16.17 11.179ZM11.319 6.65H8.33V6.66C7.899 6.66 7.55 7.01 7.55 7.44C7.55 7.87 7.899 8.22 8.33 8.22H11.319C11.75 8.22 12.1 7.87 12.1 7.429C12.1 7 11.75 6.65 11.319 6.65Z" fill="#AB46D2"/>
</svg>
