<svg width="25" height="24" viewBox="0 0 25 24" fill="none" xmlns="http://www.w3.org/2000/svg">
<path fill-rule="evenodd" clip-rule="evenodd" d="M7.99609 16.2236C7.99609 15.8094 8.33188 15.4736 8.74609 15.4736H15.9661C16.3803 15.4736 16.7161 15.8094 16.7161 16.2236C16.7161 16.6378 16.3803 16.9736 15.9661 16.9736H8.74609C8.33188 16.9736 7.99609 16.6378 7.99609 16.2236Z" fill="#767A83"/>
<path fill-rule="evenodd" clip-rule="evenodd" d="M7.99609 12.0371C7.99609 11.6229 8.33188 11.2871 8.74609 11.2871H15.9661C16.3803 11.2871 16.7161 11.6229 16.7161 12.0371C16.7161 12.4513 16.3803 12.7871 15.9661 12.7871H8.74609C8.33188 12.7871 7.99609 12.4513 7.99609 12.0371Z" fill="#767A83"/>
<path fill-rule="evenodd" clip-rule="evenodd" d="M7.99707 7.86035C7.99707 7.44614 8.33286 7.11035 8.74707 7.11035H11.5021C11.9163 7.11035 12.2521 7.44614 12.2521 7.86035C12.2521 8.27457 11.9163 8.61035 11.5021 8.61035H8.74707C8.33286 8.61035 7.99707 8.27457 7.99707 7.86035Z" fill="#767A83"/>
<path fill-rule="evenodd" clip-rule="evenodd" d="M16.159 2C17.7194 2 19.0527 2.51495 19.9951 3.48761C20.9347 4.45737 21.416 5.80983 21.416 7.357V16.553C21.416 18.0929 20.9382 19.4393 20.0063 20.4075C19.0717 21.3785 17.749 21.8974 16.2006 21.907L16.196 21.907L8.50762 21.91C6.94718 21.91 5.61343 21.395 4.67125 20.4223C3.73192 19.4525 3.25098 18.1001 3.25098 16.553V7.357C3.25098 5.81725 3.72843 4.47105 4.6601 3.50304C5.59455 2.53213 6.91704 2.01355 8.46536 2.00401L8.46998 2.00399L16.159 2ZM16.1591 3.5C16.1591 3.5 16.1592 3.5 16.1591 3.5L8.4746 3.50399C8.47392 3.50399 8.47324 3.50399 8.47256 3.504C7.26189 3.51189 6.35056 3.90972 5.74085 4.54321C5.12802 5.17995 4.75098 6.12675 4.75098 7.357V16.553C4.75098 17.7899 5.13103 18.741 5.7487 19.3787C6.36349 20.0134 7.28331 20.41 8.50677 20.41C8.5067 20.41 8.50684 20.41 8.50677 20.41L16.1914 20.407C16.192 20.407 16.1927 20.407 16.1933 20.407C17.4039 20.3991 18.3156 20.0011 18.9256 19.3673C19.5387 18.7302 19.916 17.7831 19.916 16.553V7.357C19.916 6.12017 19.5357 5.16913 18.9178 4.53139C18.3028 3.8966 17.3826 3.50007 16.1591 3.5Z" fill="#767A83"/>
</svg>
