<svg width="20" height="20" viewBox="0 0 20 20" fill="none" xmlns="http://www.w3.org/2000/svg">
<path d="M8.30298 16.0233C8.71957 15.9352 11.2581 15.9352 11.6747 16.0233C12.0308 16.1056 12.4159 16.2978 12.4159 16.7174C12.3952 17.117 12.1608 17.4711 11.837 17.6961C11.4171 18.0234 10.9243 18.2307 10.4091 18.3054C10.1242 18.3423 9.84429 18.3432 9.56932 18.3054C9.05334 18.2307 8.56055 18.0234 8.14147 17.6952C7.81681 17.4711 7.58243 17.117 7.56172 16.7174C7.56172 16.2978 7.94684 16.1056 8.30298 16.0233ZM10.038 1.66675C11.7715 1.66675 13.5422 2.48926 14.594 3.85397C15.2765 4.73272 15.5896 5.61063 15.5896 6.97533V7.33036C15.5896 8.37697 15.8662 8.99385 16.4749 9.70474C16.9362 10.2285 17.0837 10.9007 17.0837 11.6301C17.0837 12.3586 16.8443 13.0502 16.3648 13.6117C15.737 14.2848 14.8516 14.7145 13.948 14.7892C12.6386 14.9009 11.3284 14.9949 10.0007 14.9949C8.67228 14.9949 7.36287 14.9386 6.05345 14.7892C5.14904 14.7145 4.26367 14.2848 3.63671 13.6117C3.15718 13.0502 2.91699 12.3586 2.91699 11.6301C2.91699 10.9007 3.06524 10.2285 3.52573 9.70474C4.15352 8.99385 4.41193 8.37697 4.41193 7.33036V6.97533C4.41193 5.5737 4.76143 4.65718 5.48115 3.75997C6.55121 2.4515 8.26645 1.66675 9.96347 1.66675H10.038Z" fill="#AB46D2"/>
</svg>
