<svg width="20" height="20" viewBox="0 0 20 20" fill="none" xmlns="http://www.w3.org/2000/svg">
<path fill-rule="evenodd" clip-rule="evenodd" d="M8.60352 16.7549C9.03519 17.2358 9.58936 17.4999 10.1644 17.4999H10.1652C10.7427 17.4999 11.2994 17.2358 11.7319 16.7541C11.9635 16.4983 12.3585 16.4774 12.6144 16.7083C12.871 16.9391 12.8919 17.3349 12.661 17.5908C11.9877 18.3383 11.1019 18.7499 10.1652 18.7499H10.1635C9.22935 18.7491 8.34519 18.3374 7.67436 17.5899C7.44352 17.3341 7.46435 16.9383 7.72102 16.7083C7.97769 16.4766 8.37269 16.4974 8.60352 16.7549ZM10.2059 0.833252C13.91 0.833252 16.3984 3.71825 16.3984 6.41242C16.3984 7.79825 16.7509 8.38575 17.125 9.00908C17.495 9.62408 17.9142 10.3224 17.9142 11.6424C17.6234 15.0149 14.1025 15.2899 10.2059 15.2899C6.30919 15.2899 2.78752 15.0149 2.50001 11.6958C2.49752 10.3224 2.91669 9.62408 3.28669 9.00908L3.41731 8.78921C3.73892 8.23647 4.01336 7.63521 4.01336 6.41242C4.01336 3.71825 6.50169 0.833252 10.2059 0.833252ZM10.2059 2.08325C7.29336 2.08325 5.26336 4.36492 5.26336 6.41242C5.26336 8.14492 4.78252 8.94575 4.35752 9.65242C4.01669 10.2199 3.74752 10.6683 3.74752 11.6424C3.88669 13.2141 4.92419 14.0399 10.2059 14.0399C15.4584 14.0399 16.5284 13.1774 16.6667 11.5883C16.6642 10.6683 16.395 10.2199 16.0542 9.65242C15.6292 8.94575 15.1484 8.14492 15.1484 6.41242C15.1484 4.36492 13.1184 2.08325 10.2059 2.08325Z" fill="#1D2433"/>
</svg>
