<svg width="24" height="24" viewBox="0 0 24 24" fill="none" xmlns="http://www.w3.org/2000/svg">
<path d="M18.6077 13.8672C18.3624 13.8673 18.1195 13.819 17.8928 13.7252C17.6662 13.6315 17.4602 13.4939 17.2867 13.3205C17.1133 13.1472 16.9756 12.9413 16.8817 12.7147C16.7877 12.4881 16.7393 12.2453 16.7393 12C16.7392 11.7547 16.7874 11.5118 16.8812 11.2852C16.975 11.0585 17.1125 10.8526 17.2859 10.6791C17.4593 10.5056 17.6651 10.3679 17.8917 10.274C18.1183 10.1801 18.3612 10.1317 18.6065 10.1316C19.1018 10.1314 19.577 10.3281 19.9274 10.6782C20.2778 11.0284 20.4747 11.5034 20.4749 11.9988C20.475 12.4942 20.2784 12.9693 19.9282 13.3197C19.578 13.6701 19.103 13.867 18.6077 13.8672Z" fill="#1D2433"/>
<path d="M12.1973 13.8672C13.2285 13.8672 14.0645 13.0312 14.0645 12C14.0645 10.9688 13.2285 10.1328 12.1973 10.1328C11.1661 10.1328 10.3301 10.9688 10.3301 12C10.3301 13.0312 11.1661 13.8672 12.1973 13.8672Z" fill="#1D2433"/>
<path d="M5.78615 13.867C6.81737 13.867 7.65335 13.031 7.65335 11.9998C7.65335 10.9685 6.81737 10.1326 5.78615 10.1326C4.75492 10.1326 3.91895 10.9685 3.91895 11.9998C3.91895 13.031 4.75492 13.867 5.78615 13.867Z" fill="#1D2433"/>
</svg>
