<svg width="25" height="24" viewBox="0 0 25 24" fill="none" xmlns="http://www.w3.org/2000/svg">
<path fill-rule="evenodd" clip-rule="evenodd" d="M7.69188 16.3384C6.55534 17.0844 6 17.9893 6 18.7866C6 19.1705 6.12402 19.4548 6.34785 19.6939C6.5882 19.9507 6.97403 20.1853 7.53248 20.378C8.65852 20.7666 10.2652 20.9118 12.0945 20.9118C13.9325 20.9118 15.5384 20.7613 16.661 20.3684C17.2176 20.1736 17.6021 19.9372 17.8417 19.6788C18.0652 19.4377 18.1891 19.1511 18.1891 18.766C18.1891 17.9716 17.6322 17.0718 16.4921 16.3297C15.3726 15.601 13.8056 15.1118 12.0945 15.1118C10.3744 15.1118 8.80835 15.6056 7.69188 16.3384ZM6.86879 15.0844C8.24663 14.18 10.1028 13.6118 12.0945 13.6118C14.0753 13.6118 15.9306 14.1744 17.3104 15.0726C18.6697 15.9573 19.6891 17.2596 19.6891 18.766C19.6891 19.5308 19.4214 20.1812 18.9416 20.6987C18.4778 21.1988 17.847 21.5426 17.1565 21.7842C15.7848 22.2643 13.9684 22.4118 12.0945 22.4118C10.2321 22.4118 8.41646 22.2698 7.04319 21.796C6.35198 21.5574 5.7189 21.217 5.25274 20.719C4.77007 20.2033 4.5 19.5531 4.5 18.7866C4.5 17.2831 5.51103 15.9756 6.86879 15.0844Z" fill="black"/>
<path fill-rule="evenodd" clip-rule="evenodd" d="M6.94924 6.78591C6.94993 3.94956 9.24999 1.6499 12.0865 1.6499C14.9237 1.6499 17.2229 3.95044 17.2229 6.78718C17.2229 9.62411 14.9235 11.9236 12.0865 11.9236H12.0556L12.053 11.9236C9.22464 11.914 6.94035 9.61399 6.94924 6.78591ZM6.94924 6.78591C6.94925 6.78549 6.94925 6.78507 6.94925 6.78464L7.69924 6.78718H6.94924C6.94924 6.78676 6.94924 6.78634 6.94924 6.78591ZM12.0865 3.1499C10.078 3.1499 8.44924 4.77866 8.44924 6.78718V6.78972C8.44247 8.7897 10.0572 10.4161 12.0568 10.4236H12.0856C14.0942 10.4236 15.7229 8.7957 15.7229 6.78718C15.7229 4.77846 14.0948 3.1499 12.0865 3.1499Z" fill="black"/>
</svg>
